<mxfile host="app.diagrams.net" modified="2023-03-01T00:53:57.292Z" agent="5.0 (Windows NT 10.0; Win64; x64) AppleWebKit/537.36 (KHTML, like Gecko) Chrome/110.0.0.0 Safari/537.36" etag="OeoYhw5-mJ_dnkqGN8X8" version="20.8.23" type="github">
  <diagram name="Página-1" id="GQ9k01KbU5WrhmJNSeLD">
    <mxGraphModel dx="794" dy="462" grid="1" gridSize="10" guides="1" tooltips="1" connect="1" arrows="1" fold="1" page="1" pageScale="1" pageWidth="827" pageHeight="1169" math="0" shadow="0">
      <root>
        <mxCell id="0" />
        <mxCell id="1" parent="0" />
        <mxCell id="rcWIrGb-Rc7CvxwVT57o-1" value="INÍCIO" style="ellipse;whiteSpace=wrap;html=1;" vertex="1" parent="1">
          <mxGeometry x="120" y="20" width="120" height="60" as="geometry" />
        </mxCell>
        <mxCell id="rcWIrGb-Rc7CvxwVT57o-3" value="Quantidade inicial das peças" style="shape=trapezoid;perimeter=trapezoidPerimeter;whiteSpace=wrap;html=1;fixedSize=1;" vertex="1" parent="1">
          <mxGeometry x="85" y="120" width="190" height="60" as="geometry" />
        </mxCell>
        <mxCell id="rcWIrGb-Rc7CvxwVT57o-4" value="Deseja adicionar peças?" style="rhombus;whiteSpace=wrap;html=1;" vertex="1" parent="1">
          <mxGeometry x="140" y="220" width="80" height="80" as="geometry" />
        </mxCell>
        <mxCell id="rcWIrGb-Rc7CvxwVT57o-6" value="SOMAR a quantidade adicionada à quantidade inicial" style="rounded=0;whiteSpace=wrap;html=1;" vertex="1" parent="1">
          <mxGeometry x="130" y="390" width="120" height="60" as="geometry" />
        </mxCell>
        <mxCell id="rcWIrGb-Rc7CvxwVT57o-11" value="" style="endArrow=classic;html=1;rounded=0;" edge="1" parent="1">
          <mxGeometry width="50" height="50" relative="1" as="geometry">
            <mxPoint x="180" y="80" as="sourcePoint" />
            <mxPoint x="179.5" y="120" as="targetPoint" />
            <Array as="points" />
          </mxGeometry>
        </mxCell>
        <mxCell id="rcWIrGb-Rc7CvxwVT57o-14" value="" style="endArrow=classic;html=1;rounded=0;" edge="1" parent="1">
          <mxGeometry width="50" height="50" relative="1" as="geometry">
            <mxPoint x="179.5" y="180" as="sourcePoint" />
            <mxPoint x="179.5" y="220" as="targetPoint" />
            <Array as="points" />
          </mxGeometry>
        </mxCell>
        <mxCell id="rcWIrGb-Rc7CvxwVT57o-15" value="" style="endArrow=classic;html=1;rounded=0;" edge="1" parent="1">
          <mxGeometry width="50" height="50" relative="1" as="geometry">
            <mxPoint x="179.5" y="300" as="sourcePoint" />
            <mxPoint x="179.5" y="330" as="targetPoint" />
            <Array as="points">
              <mxPoint x="179.5" y="300" />
            </Array>
          </mxGeometry>
        </mxCell>
        <mxCell id="rcWIrGb-Rc7CvxwVT57o-16" value="Verdadeiro" style="text;html=1;strokeColor=none;fillColor=none;align=center;verticalAlign=middle;whiteSpace=wrap;rounded=0;" vertex="1" parent="1">
          <mxGeometry x="150" y="330" width="60" height="30" as="geometry" />
        </mxCell>
        <mxCell id="rcWIrGb-Rc7CvxwVT57o-17" value="" style="endArrow=classic;html=1;rounded=0;" edge="1" parent="1">
          <mxGeometry width="50" height="50" relative="1" as="geometry">
            <mxPoint x="179.5" y="350" as="sourcePoint" />
            <mxPoint x="179.5" y="390" as="targetPoint" />
            <Array as="points" />
          </mxGeometry>
        </mxCell>
        <mxCell id="rcWIrGb-Rc7CvxwVT57o-18" value="Deseja adicionar peças?" style="rhombus;whiteSpace=wrap;html=1;" vertex="1" parent="1">
          <mxGeometry x="140" y="490" width="80" height="80" as="geometry" />
        </mxCell>
        <mxCell id="rcWIrGb-Rc7CvxwVT57o-20" value="Verdadeiro" style="text;html=1;strokeColor=none;fillColor=none;align=center;verticalAlign=middle;whiteSpace=wrap;rounded=0;" vertex="1" parent="1">
          <mxGeometry x="150" y="600" width="60" height="30" as="geometry" />
        </mxCell>
        <mxCell id="rcWIrGb-Rc7CvxwVT57o-21" value="" style="endArrow=classic;html=1;rounded=0;" edge="1" parent="1">
          <mxGeometry width="50" height="50" relative="1" as="geometry">
            <mxPoint x="179.5" y="450" as="sourcePoint" />
            <mxPoint x="179.5" y="490" as="targetPoint" />
            <Array as="points" />
          </mxGeometry>
        </mxCell>
        <mxCell id="rcWIrGb-Rc7CvxwVT57o-27" value="" style="endArrow=classic;html=1;rounded=0;" edge="1" parent="1">
          <mxGeometry width="50" height="50" relative="1" as="geometry">
            <mxPoint x="179.5" y="570" as="sourcePoint" />
            <mxPoint x="179.5" y="610" as="targetPoint" />
          </mxGeometry>
        </mxCell>
        <mxCell id="rcWIrGb-Rc7CvxwVT57o-28" value="" style="endArrow=classic;html=1;rounded=0;entryX=0;entryY=0.75;entryDx=0;entryDy=0;" edge="1" parent="1" target="rcWIrGb-Rc7CvxwVT57o-6">
          <mxGeometry width="50" height="50" relative="1" as="geometry">
            <mxPoint x="150" y="620" as="sourcePoint" />
            <mxPoint x="60" y="420" as="targetPoint" />
            <Array as="points">
              <mxPoint x="60" y="620" />
            </Array>
          </mxGeometry>
        </mxCell>
        <mxCell id="rcWIrGb-Rc7CvxwVT57o-29" value="" style="endArrow=classic;html=1;rounded=0;" edge="1" parent="1">
          <mxGeometry width="50" height="50" relative="1" as="geometry">
            <mxPoint x="220" y="259.5" as="sourcePoint" />
            <mxPoint x="270" y="259.5" as="targetPoint" />
          </mxGeometry>
        </mxCell>
        <mxCell id="rcWIrGb-Rc7CvxwVT57o-30" value="Falso" style="text;html=1;strokeColor=none;fillColor=none;align=center;verticalAlign=middle;whiteSpace=wrap;rounded=0;" vertex="1" parent="1">
          <mxGeometry x="260" y="245" width="60" height="30" as="geometry" />
        </mxCell>
        <mxCell id="rcWIrGb-Rc7CvxwVT57o-31" value="" style="endArrow=classic;html=1;rounded=0;" edge="1" parent="1">
          <mxGeometry width="50" height="50" relative="1" as="geometry">
            <mxPoint x="310" y="259.5" as="sourcePoint" />
            <mxPoint x="360" y="259.5" as="targetPoint" />
          </mxGeometry>
        </mxCell>
        <mxCell id="rcWIrGb-Rc7CvxwVT57o-32" value="SUBTRAIR a quantidade retirada à quantidade inicial" style="rounded=0;whiteSpace=wrap;html=1;" vertex="1" parent="1">
          <mxGeometry x="510" y="315" width="120" height="60" as="geometry" />
        </mxCell>
        <mxCell id="rcWIrGb-Rc7CvxwVT57o-33" value="Deseja retirar peças?" style="rhombus;whiteSpace=wrap;html=1;" vertex="1" parent="1">
          <mxGeometry x="370" y="215" width="100" height="90" as="geometry" />
        </mxCell>
        <mxCell id="rcWIrGb-Rc7CvxwVT57o-35" value="" style="endArrow=classic;html=1;rounded=0;" edge="1" parent="1">
          <mxGeometry width="50" height="50" relative="1" as="geometry">
            <mxPoint x="480" y="259.5" as="sourcePoint" />
            <mxPoint x="530" y="259.5" as="targetPoint" />
          </mxGeometry>
        </mxCell>
        <mxCell id="rcWIrGb-Rc7CvxwVT57o-36" value="Verdadeiro" style="text;html=1;strokeColor=none;fillColor=none;align=center;verticalAlign=middle;whiteSpace=wrap;rounded=0;" vertex="1" parent="1">
          <mxGeometry x="540" y="245" width="60" height="30" as="geometry" />
        </mxCell>
        <mxCell id="rcWIrGb-Rc7CvxwVT57o-37" value="" style="endArrow=classic;html=1;rounded=0;" edge="1" parent="1">
          <mxGeometry width="50" height="50" relative="1" as="geometry">
            <mxPoint x="569.5" y="265" as="sourcePoint" />
            <mxPoint x="569.5" y="305" as="targetPoint" />
            <Array as="points">
              <mxPoint x="569.5" y="295" />
            </Array>
          </mxGeometry>
        </mxCell>
        <mxCell id="rcWIrGb-Rc7CvxwVT57o-40" value="" style="endArrow=classic;html=1;rounded=0;" edge="1" parent="1">
          <mxGeometry width="50" height="50" relative="1" as="geometry">
            <mxPoint x="419.5" y="305" as="sourcePoint" />
            <mxPoint x="420" y="450" as="targetPoint" />
          </mxGeometry>
        </mxCell>
        <mxCell id="rcWIrGb-Rc7CvxwVT57o-41" value="Deseja retirar peças?" style="rhombus;whiteSpace=wrap;html=1;" vertex="1" parent="1">
          <mxGeometry x="520" y="430" width="100" height="90" as="geometry" />
        </mxCell>
        <mxCell id="rcWIrGb-Rc7CvxwVT57o-42" value="" style="endArrow=classic;html=1;rounded=0;exitX=0;exitY=0.5;exitDx=0;exitDy=0;" edge="1" parent="1" source="rcWIrGb-Rc7CvxwVT57o-41">
          <mxGeometry width="50" height="50" relative="1" as="geometry">
            <mxPoint x="480" y="450" as="sourcePoint" />
            <mxPoint x="460" y="475" as="targetPoint" />
          </mxGeometry>
        </mxCell>
        <mxCell id="rcWIrGb-Rc7CvxwVT57o-43" value="" style="endArrow=classic;html=1;rounded=0;startArrow=none;exitX=0.75;exitY=1;exitDx=0;exitDy=0;" edge="1" parent="1" source="rcWIrGb-Rc7CvxwVT57o-52">
          <mxGeometry width="50" height="50" relative="1" as="geometry">
            <mxPoint x="370" y="510" as="sourcePoint" />
            <mxPoint x="450" y="600" as="targetPoint" />
          </mxGeometry>
        </mxCell>
        <mxCell id="rcWIrGb-Rc7CvxwVT57o-45" value="Verdadeiro" style="text;html=1;strokeColor=none;fillColor=none;align=center;verticalAlign=middle;whiteSpace=wrap;rounded=0;" vertex="1" parent="1">
          <mxGeometry x="690" y="460" width="60" height="30" as="geometry" />
        </mxCell>
        <mxCell id="rcWIrGb-Rc7CvxwVT57o-46" value="" style="endArrow=classic;html=1;rounded=0;" edge="1" parent="1">
          <mxGeometry width="50" height="50" relative="1" as="geometry">
            <mxPoint x="620" y="474.5" as="sourcePoint" />
            <mxPoint x="680" y="474.5" as="targetPoint" />
          </mxGeometry>
        </mxCell>
        <mxCell id="rcWIrGb-Rc7CvxwVT57o-47" value="" style="endArrow=classic;html=1;rounded=0;" edge="1" parent="1">
          <mxGeometry width="50" height="50" relative="1" as="geometry">
            <mxPoint x="710" y="450" as="sourcePoint" />
            <mxPoint x="635" y="377" as="targetPoint" />
          </mxGeometry>
        </mxCell>
        <mxCell id="rcWIrGb-Rc7CvxwVT57o-48" value="" style="endArrow=classic;html=1;rounded=0;" edge="1" parent="1">
          <mxGeometry width="50" height="50" relative="1" as="geometry">
            <mxPoint x="569.5" y="375" as="sourcePoint" />
            <mxPoint x="569.5" y="415" as="targetPoint" />
            <Array as="points" />
          </mxGeometry>
        </mxCell>
        <mxCell id="rcWIrGb-Rc7CvxwVT57o-49" value="Falso" style="text;html=1;strokeColor=none;fillColor=none;align=center;verticalAlign=middle;whiteSpace=wrap;rounded=0;" vertex="1" parent="1">
          <mxGeometry x="270" y="585" width="60" height="30" as="geometry" />
        </mxCell>
        <mxCell id="rcWIrGb-Rc7CvxwVT57o-50" value="" style="endArrow=classic;html=1;rounded=0;exitX=0.5;exitY=1;exitDx=0;exitDy=0;" edge="1" parent="1" source="rcWIrGb-Rc7CvxwVT57o-18">
          <mxGeometry width="50" height="50" relative="1" as="geometry">
            <mxPoint x="220" y="530" as="sourcePoint" />
            <mxPoint x="260" y="590" as="targetPoint" />
          </mxGeometry>
        </mxCell>
        <mxCell id="rcWIrGb-Rc7CvxwVT57o-52" value="Falso" style="text;html=1;strokeColor=none;fillColor=none;align=center;verticalAlign=middle;whiteSpace=wrap;rounded=0;" vertex="1" parent="1">
          <mxGeometry x="384" y="460" width="60" height="30" as="geometry" />
        </mxCell>
        <mxCell id="rcWIrGb-Rc7CvxwVT57o-53" value="FIM" style="ellipse;whiteSpace=wrap;html=1;" vertex="1" parent="1">
          <mxGeometry x="414" y="610" width="120" height="60" as="geometry" />
        </mxCell>
        <mxCell id="rcWIrGb-Rc7CvxwVT57o-54" value="" style="endArrow=classic;html=1;rounded=0;exitX=0.5;exitY=1;exitDx=0;exitDy=0;" edge="1" parent="1">
          <mxGeometry width="50" height="50" relative="1" as="geometry">
            <mxPoint x="330" y="605" as="sourcePoint" />
            <mxPoint x="410" y="625" as="targetPoint" />
          </mxGeometry>
        </mxCell>
      </root>
    </mxGraphModel>
  </diagram>
</mxfile>
